<svg width="44" height="44" xmlns="http://www.w3.org/2000/svg" xmlns:xlink="http://www.w3.org/1999/xlink" xml:space="preserve" overflow="hidden"><defs><clipPath id="clip0"><rect x="1135" y="898" width="44" height="44"/></clipPath></defs><g clip-path="url(#clip0)" transform="translate(-1135 -898)"><path d="M1151.66 909.625 1146.62 914.656 1151.97 920 1146.62 925.344 1151.66 930.375 1157 925.031 1162.34 930.375 1167.38 925.344 1162.03 920 1167.38 914.656 1162.34 909.625 1157 914.969ZM1142.33 898 1171.67 898C1175.72 898 1179 901.283 1179 905.333L1179 934.667C1179 938.716 1175.72 942 1171.67 942L1142.33 942C1138.28 942 1135 938.716 1135 934.667L1135 905.333C1135 901.283 1138.28 898 1142.33 898Z" fill="#FFFFFF" fill-rule="evenodd"/></g></svg>