<svg width="1413" height="385" xmlns="http://www.w3.org/2000/svg" xmlns:xlink="http://www.w3.org/1999/xlink" xml:space="preserve" overflow="hidden"><defs><filter id="fx0" x="-10%" y="-10%" width="120%" height="120%" filterUnits="userSpaceOnUse" primitiveUnits="userSpaceOnUse"><feComponentTransfer color-interpolation-filters="sRGB"><feFuncR type="discrete" tableValues="0.498039 0.498039"/><feFuncG type="discrete" tableValues="0.498039 0.498039"/><feFuncB type="discrete" tableValues="0.498039 0.498039"/><feFuncA type="linear" slope="0.4" intercept="0"/></feComponentTransfer><feGaussianBlur stdDeviation="6.11111 6.11111"/></filter><clipPath id="clip1"><rect x="1804" y="1868" width="1413" height="385"/></clipPath><clipPath id="clip2"><rect x="104" y="83" width="1111" height="217"/></clipPath><clipPath id="clip3"><rect x="0" y="0" width="1309" height="387"/></clipPath></defs><g clip-path="url(#clip1)" transform="translate(-1804 -1868)"><g clip-path="url(#clip2)" filter="url(#fx0)" transform="translate(1856 1867)"><g clip-path="url(#clip3)"><path d="M84.645 0.99 118.635 0.99 118.635-115.665C118.635-126.72 110.55-132.495 101.64-132.495 92.73-132.495 84.645-126.72 84.645-115.665L84.645-81.015 42.9-81.015 42.9-115.665C42.9-126.72 34.815-132.495 25.905-132.495 16.995-132.495 8.91-126.72 8.91-115.665L8.91 0.99 42.9 0.99 42.9-52.305 84.645-52.305Z" fill="#4285F4" transform="matrix(1 0 0 1 118.862 244)"/><path d="M57.75 3.795C69.795 3.795 81.51 0.33 86.79-2.805 94.71-7.425 98.67-14.355 95.205-22.44 93.06-27.39 87.78-29.37 82.17-28.71 79.365-28.38 76.89-27.06 74.415-26.235 69.96-24.75 66.495-24.09 58.41-24.09 50.49-24.09 39.6-27.885 39.6-39.105L39.6-39.27 98.67-39.27C99.165-42.075 99.495-46.695 99.495-49.5 99.495-93.225 76.89-102.135 53.955-102.135 32.835-102.135 6.93-91.575 6.93-56.43L6.93-41.91C6.93-7.425 33.825 3.795 57.75 3.795ZM54.12-75.405C61.38-75.405 67.98-71.775 67.485-60.885L39.6-60.885C39.765-71.775 46.86-75.405 54.12-75.405Z" fill="#34A853" transform="matrix(1 0 0 1 246.622 244)"/><path d="M101.97-78.54C106.095-88.275 101.64-97.515 93.06-100.65 84.48-103.785 74.415-101.64 70.785-91.245L53.295-39.93 34.32-91.245C30.525-101.64 20.295-103.785 11.715-100.65 3.135-97.515-1.815-88.11 2.475-78.54L36.135-3.63 36.135-3.465C33.495 1.485 26.565 3.63 19.8 2.31 10.065 0.495 4.62 6.6 3.465 14.025 2.475 21.285 7.26 29.04 16.83 30.36 39.765 33.66 57.255 24.09 67.32 0.825Z" fill="#FBBC05" transform="matrix(1 0 0 1 352.612 244)"/><path d="M115.995-51.975C115.995-70.455 111.045-76.56 91.575-76.56L76.56-76.56C67.155-76.56 63.36-68.805 63.36-62.205 63.36-55.605 66.99-48.345 76.56-48.345L82.005-48.345C85.14-48.345 85.8-47.85 85.8-44.55L85.8-42.57C85.8-30.855 75.405-25.41 64.185-25.41 52.305-25.41 40.59-32.67 40.59-47.85L40.59-80.85C40.59-96.03 53.13-103.29 64.68-103.29 71.94-103.29 77.715-102.63 81.675-101.145 84.15-100.155 86.955-98.34 90.75-97.68 96.36-96.69 102.465-99 105.765-104.775 109.725-111.705 106.425-119.625 99.66-124.41 93.225-129.03 79.86-132.495 64.68-132.495 35.64-132.495 6.93-118.8 6.93-82.335L6.93-46.365C6.93-10.23 35.64 3.795 64.185 3.795 92.4 3.795 115.995-9.57 115.995-43.065Z" fill="#4285F4" transform="matrix(1 0 0 1 503.289 244)"/><path d="M6.93-41.58C6.93-6.105 32.835 4.125 54.78 4.125 76.725 4.125 102.63-6.105 102.63-41.58L102.63-56.76C102.63-92.235 76.725-102.465 54.78-102.465 32.34-102.465 6.93-92.235 6.93-56.76ZM69.465-40.095C69.465-28.38 61.875-23.76 54.78-23.76 47.685-23.76 40.095-28.38 40.095-40.095L40.095-58.245C40.095-69.96 47.685-74.58 54.78-74.58 61.875-74.58 69.465-69.96 69.465-58.245Z" fill="#FF0000" transform="matrix(1 0 0 1 623.601 244)"/><path d="M6.93-41.58C6.93-6.105 32.835 4.125 54.78 4.125 76.725 4.125 102.63-6.105 102.63-41.58L102.63-56.76C102.63-92.235 76.725-102.465 54.78-102.465 32.34-102.465 6.93-92.235 6.93-56.76ZM69.465-40.095C69.465-28.38 61.875-23.76 54.78-23.76 47.685-23.76 40.095-28.38 40.095-40.095L40.095-58.245C40.095-69.96 47.685-74.58 54.78-74.58 61.875-74.58 69.465-69.96 69.465-58.245Z" fill="#FBBC05" transform="matrix(1 0 0 1 733.028 244)"/><path d="M102.3-11.385 102.3-85.635C102.3-96.525 94.545-102.135 85.8-102.135 79.2-102.135 73.095-99 70.455-92.895 64.185-99 55.11-102.135 46.86-102.135 25.08-102.135 6.93-91.41 6.93-56.595L6.93-49.335C6.93-14.85 24.915-4.455 46.695-4.455 56.76-4.455 64.68-7.755 70.455-13.53L70.455-10.56C70.455-3.135 64.35 4.29 50.325 4.29 44.22 4.29 38.94 3.465 34.155 2.805 28.545 1.98 23.1 5.445 21.12 10.725 18.975 16.5 21.45 23.595 26.4 26.565 31.845 29.7 44.22 31.35 50.325 31.02 94.71 29.205 102.3 6.765 102.3-11.385ZM40.92-58.905C40.92-70.125 49.17-73.92 54.945-73.92 60.555-73.92 68.64-70.29 69.135-59.73L69.135-45.54C68.64-34.98 60.555-31.35 54.945-31.35 49.17-31.35 40.92-35.145 40.92-46.365Z" fill="#4285F4" transform="matrix(1 0 0 1 842.456 244)"/><path d="M8.91 0.99 42.9 0.99 42.9-121.935C42.9-133.32 35.145-138.435 25.905-138.435 16.665-138.435 8.91-133.32 8.91-121.935Z" fill="#34A853" transform="matrix(1 0 0 1 953.028 244)"/><path d="M57.75 3.795C69.795 3.795 81.51 0.33 86.79-2.805 94.71-7.425 98.67-14.355 95.205-22.44 93.06-27.39 87.78-29.37 82.17-28.71 79.365-28.38 76.89-27.06 74.415-26.235 69.96-24.75 66.495-24.09 58.41-24.09 50.49-24.09 39.6-27.885 39.6-39.105L39.6-39.27 98.67-39.27C99.165-42.075 99.495-46.695 99.495-49.5 99.495-93.225 76.89-102.135 53.955-102.135 32.835-102.135 6.93-91.575 6.93-56.43L6.93-41.91C6.93-7.425 33.825 3.795 57.75 3.795ZM54.12-75.405C61.38-75.405 67.98-71.775 67.485-60.885L39.6-60.885C39.765-71.775 46.86-75.405 54.12-75.405Z" fill="#FF0000" transform="matrix(1 0 0 1 1004.59 244)"/><path d="M41.745 0.99 41.745-57.09C42.24-65.34 47.685-70.455 56.76-71.115 59.07-71.28 62.04-71.115 64.35-71.115 71.61-71.115 77.55-76.065 78.705-83.82 79.86-91.575 76.23-98.175 69.96-100.815 67.485-101.805 64.68-102.135 62.205-102.135 54.12-102.135 46.365-98.67 40.26-92.895 37.455-99 31.35-102.135 24.915-102.135 16.17-102.135 8.25-96.525 8.25-85.635L8.25 0.99Z" fill="#FBBC05" transform="matrix(1 0 0 1 1110.58 244)"/></g></g><text fill="#4285F4" font-family="Jalnan OTF,Jalnan OTF_MSFontService,sans-serif" font-weight="700" font-size="165" transform="matrix(1 0 0 1 1965.14 2101)">H</text><text fill="#34A853" font-family="Jalnan OTF,Jalnan OTF_MSFontService,sans-serif" font-weight="700" font-size="165" transform="matrix(1 0 0 1 2092.9 2101)">e</text><text fill="#FBBC05" font-family="Jalnan OTF,Jalnan OTF_MSFontService,sans-serif" font-weight="700" font-size="165" transform="matrix(1 0 0 1 2198.89 2101)">y</text><text fill="#4285F4" font-family="Jalnan OTF,Jalnan OTF_MSFontService,sans-serif" font-weight="700" font-size="165" transform="matrix(1 0 0 1 2349.57 2101)">G</text><text fill="#FF0000" font-family="Jalnan OTF,Jalnan OTF_MSFontService,sans-serif" font-weight="700" font-size="165" transform="matrix(1 0 0 1 2469.88 2101)">o</text><text fill="#FBBC05" font-family="Jalnan OTF,Jalnan OTF_MSFontService,sans-serif" font-weight="700" font-size="165" transform="matrix(1 0 0 1 2579.31 2101)">o</text><text fill="#4285F4" font-family="Jalnan OTF,Jalnan OTF_MSFontService,sans-serif" font-weight="700" font-size="165" transform="matrix(1 0 0 1 2688.73 2101)">g</text><text fill="#34A853" font-family="Jalnan OTF,Jalnan OTF_MSFontService,sans-serif" font-weight="700" font-size="165" transform="matrix(1 0 0 1 2799.31 2101)">l</text><text fill="#FF0000" font-family="Jalnan OTF,Jalnan OTF_MSFontService,sans-serif" font-weight="700" font-size="165" transform="matrix(1 0 0 1 2850.87 2101)">e</text><text fill="#FBBC05" font-family="Jalnan OTF,Jalnan OTF_MSFontService,sans-serif" font-weight="700" font-size="165" transform="matrix(1 0 0 1 2956.86 2101)">r</text></g></svg>