<svg width="1413" height="385" xmlns="http://www.w3.org/2000/svg" xmlns:xlink="http://www.w3.org/1999/xlink" xml:space="preserve" overflow="hidden"><defs><filter id="fx0" x="-10%" y="-10%" width="120%" height="120%" filterUnits="userSpaceOnUse" primitiveUnits="userSpaceOnUse"><feComponentTransfer color-interpolation-filters="sRGB"><feFuncR type="discrete" tableValues="0.65098 0.65098"/><feFuncG type="discrete" tableValues="0.65098 0.65098"/><feFuncB type="discrete" tableValues="0.65098 0.65098"/><feFuncA type="linear" slope="0.4" intercept="0"/></feComponentTransfer><feGaussianBlur stdDeviation="6.11111 6.11111"/></filter><clipPath id="clip1"><rect x="1804" y="1868" width="1413" height="385"/></clipPath><clipPath id="clip2"><rect x="104" y="83" width="1111" height="217"/></clipPath><clipPath id="clip3"><rect x="0" y="0" width="1309" height="387"/></clipPath></defs><g clip-path="url(#clip1)" transform="translate(-1804 -1868)"><g clip-path="url(#clip2)" filter="url(#fx0)" transform="translate(1856 1867)"><g clip-path="url(#clip3)"><path d="M84.645 0.99 118.635 0.99 118.635-115.665C118.635-126.72 110.55-132.495 101.64-132.495 92.73-132.495 84.645-126.72 84.645-115.665L84.645-81.015 42.9-81.015 42.9-115.665C42.9-126.72 34.815-132.495 25.905-132.495 16.995-132.495 8.91-126.72 8.91-115.665L8.91 0.99 42.9 0.99 42.9-52.305 84.645-52.305ZM185.51 3.795C197.555 3.795 209.27 0.33 214.55-2.805 222.47-7.425 226.43-14.355 222.965-22.44 220.82-27.39 215.54-29.37 209.93-28.71 207.125-28.38 204.65-27.06 202.175-26.235 197.72-24.75 194.255-24.09 186.17-24.09 178.25-24.09 167.36-27.885 167.36-39.105L167.36-39.27 226.43-39.27C226.925-42.075 227.255-46.695 227.255-49.5 227.255-93.225 204.65-102.135 181.715-102.135 160.595-102.135 134.69-91.575 134.69-56.43L134.69-41.91C134.69-7.425 161.585 3.795 185.51 3.795ZM181.88-75.405C189.14-75.405 195.74-71.775 195.245-60.885L167.36-60.885C167.525-71.775 174.62-75.405 181.88-75.405ZM335.72-78.54C339.845-88.275 335.39-97.515 326.81-100.65 318.23-103.785 308.165-101.64 304.535-91.245L287.045-39.93 268.07-91.245C264.275-101.64 254.045-103.785 245.465-100.65 236.885-97.515 231.935-88.11 236.225-78.54L269.885-3.63 269.885-3.465C267.245 1.485 260.315 3.63 253.55 2.31 243.815 0.495 238.37 6.6 237.215 14.025 236.225 21.285 241.01 29.04 250.58 30.36 273.515 33.66 291.005 24.09 301.07 0.825ZM500.422-51.975C500.422-70.455 495.472-76.56 476.002-76.56L460.987-76.56C451.582-76.56 447.787-68.805 447.787-62.205 447.787-55.605 451.417-48.345 460.987-48.345L466.432-48.345C469.567-48.345 470.227-47.85 470.227-44.55L470.227-42.57C470.227-30.855 459.832-25.41 448.612-25.41 436.732-25.41 425.017-32.67 425.017-47.85L425.017-80.85C425.017-96.03 437.557-103.29 449.107-103.29 456.367-103.29 462.142-102.63 466.102-101.145 468.577-100.155 471.382-98.34 475.177-97.68 480.787-96.69 486.892-99 490.192-104.775 494.152-111.705 490.852-119.625 484.087-124.41 477.652-129.03 464.287-132.495 449.107-132.495 420.067-132.495 391.357-118.8 391.357-82.335L391.357-46.365C391.357-10.23 420.067 3.795 448.612 3.795 476.827 3.795 500.422-9.57 500.422-43.065ZM511.67-41.58C511.67-6.105 537.575 4.125 559.52 4.125 581.465 4.125 607.37-6.105 607.37-41.58L607.37-56.76C607.37-92.235 581.465-102.465 559.52-102.465 537.08-102.465 511.67-92.235 511.67-56.76ZM574.205-40.095C574.205-28.38 566.615-23.76 559.52-23.76 552.425-23.76 544.835-28.38 544.835-40.095L544.835-58.245C544.835-69.96 552.425-74.58 559.52-74.58 566.615-74.58 574.205-69.96 574.205-58.245ZM621.097-41.58C621.097-6.105 647.002 4.125 668.947 4.125 690.892 4.125 716.797-6.105 716.797-41.58L716.797-56.76C716.797-92.235 690.892-102.465 668.947-102.465 646.507-102.465 621.097-92.235 621.097-56.76ZM683.632-40.095C683.632-28.38 676.042-23.76 668.947-23.76 661.852-23.76 654.262-28.38 654.262-40.095L654.262-58.245C654.262-69.96 661.852-74.58 668.947-74.58 676.042-74.58 683.632-69.96 683.632-58.245ZM825.894-11.385 825.894-85.635C825.894-96.525 818.139-102.135 809.394-102.135 802.794-102.135 796.689-99 794.049-92.895 787.779-99 778.704-102.135 770.454-102.135 748.674-102.135 730.524-91.41 730.524-56.595L730.524-49.335C730.524-14.85 748.509-4.455 770.289-4.455 780.354-4.455 788.274-7.755 794.049-13.53L794.049-10.56C794.049-3.135 787.944 4.29 773.919 4.29 767.814 4.29 762.534 3.465 757.749 2.805 752.139 1.98 746.694 5.445 744.714 10.725 742.569 16.5 745.044 23.595 749.994 26.565 755.439 29.7 767.814 31.35 773.919 31.02 818.304 29.205 825.894 6.765 825.894-11.385ZM764.514-58.905C764.514-70.125 772.764-73.92 778.539-73.92 784.149-73.92 792.234-70.29 792.729-59.73L792.729-45.54C792.234-34.98 784.149-31.35 778.539-31.35 772.764-31.35 764.514-35.145 764.514-46.365ZM843.077 0.99 877.067 0.99 877.067-121.935C877.067-133.32 869.312-138.435 860.072-138.435 850.832-138.435 843.077-133.32 843.077-121.935ZM943.479 3.795C955.524 3.795 967.239 0.33 972.519-2.805 980.439-7.425 984.399-14.355 980.934-22.44 978.789-27.39 973.509-29.37 967.899-28.71 965.094-28.38 962.619-27.06 960.144-26.235 955.689-24.75 952.224-24.09 944.139-24.09 936.219-24.09 925.329-27.885 925.329-39.105L925.329-39.27 984.399-39.27C984.894-42.075 985.224-46.695 985.224-49.5 985.224-93.225 962.619-102.135 939.684-102.135 918.564-102.135 892.659-91.575 892.659-56.43L892.659-41.91C892.659-7.425 919.554 3.795 943.479 3.795ZM939.849-75.405C947.109-75.405 953.709-71.775 953.214-60.885L925.329-60.885C925.494-71.775 932.589-75.405 939.849-75.405ZM1033.46 0.99 1033.46-57.09C1033.96-65.34 1039.4-70.455 1048.48-71.115 1050.79-71.28 1053.76-71.115 1056.07-71.115 1063.33-71.115 1069.27-76.065 1070.42-83.82 1071.58-91.575 1067.95-98.175 1061.68-100.815 1059.2-101.805 1056.4-102.135 1053.92-102.135 1045.84-102.135 1038.08-98.67 1031.98-92.895 1029.17-99 1023.07-102.135 1016.63-102.135 1007.89-102.135 999.969-96.525 999.969-85.635L999.969 0.99Z" fill="#7F7F7F" transform="matrix(1 0 0 1 118.862 244)"/></g></g><text fill="#7F7F7F" font-family="Jalnan OTF,Jalnan OTF_MSFontService,sans-serif" font-weight="700" font-size="165" transform="matrix(1 0 0 1 1965.14 2101)">Hey Googler</text></g></svg>